<svg id="Ebene_1" data-name="Ebene 1" xmlns="http://www.w3.org/2000/svg" xmlns:xlink="http://www.w3.org/1999/xlink" viewBox="0 0 841.89 595.28"><defs><style>.cls-1{fill:none;}.cls-2{fill:#292956;}.cls-3{clip-path:url(#clip-path);}.cls-4{fill:#fff;}.cls-5{fill:#fd0;}.cls-6{fill:#f39100;}.cls-7{fill:#e7306c;}.cls-8{fill:#ab3670;}.cls-9{fill:#c80464;}.cls-10{fill:#f59900;}.cls-11{fill:#fbe900;}.cls-12{fill:#ea5900;}.cls-13{fill:#198cd1;}.cls-14{fill:#435b8f;}.cls-15{fill:#e4002a;}.cls-16{fill:#e50059;}.cls-17{fill:#cd5684;}.cls-18{fill:#ed7400;}.cls-19{fill:#ea5403;}.cls-20{fill:#fbb800;}.cls-21{fill:#ffce00;}.cls-22{fill:#d60064;}.cls-23{fill:#286cb8;}.cls-24{fill:#5377b2;}.cls-25{fill:#d9da00;}.cls-26{fill:#a9ca3a;}.cls-27{fill:#54b46f;}.cls-28{fill:#88c058;}.cls-29{fill:#bbcf00;}.cls-30{fill:#fbf312;}.cls-31{fill:#e4003e;}.cls-32{fill:#e6090a;}.cls-33{fill:#1b88cf;}.cls-34{fill:#2d285c;}.cls-35{fill:#1d5a9e;}.cls-36{clip-path:url(#clip-path-2);}</style><clipPath id="clip-path" transform="translate(-0.1 0)"><rect class="cls-1" x="0.1" width="841.89" height="595.28"/></clipPath><clipPath id="clip-path-2" transform="translate(-0.1 0)"><rect class="cls-1" width="841.89" height="595.28"/></clipPath></defs><rect class="cls-2" width="841.89" height="595.28"/><g class="cls-3"><path class="cls-4" d="M367.46,437q-1.23-1.23-1.23-5.28a9.79,9.79,0,0,1,1-5.09c.68-1.1,1.92-1.64,3.71-1.64a27.3,27.3,0,0,1,3.92.38v11.31l-.66.35a14.8,14.8,0,0,1-1.92.66,7.6,7.6,0,0,1-2.15.35,4.27,4.27,0,0,1-1.51-.22,3.49,3.49,0,0,1-1.19-.82m7.43-20.39v7.11a28.09,28.09,0,0,0-4-.41q-3.6,0-5.12,2.06c-1,1.37-1.52,3.62-1.52,6.74s.6,5.24,1.8,6.31a4.83,4.83,0,0,0,1.74,1.06,6.72,6.72,0,0,0,2,.27,9.79,9.79,0,0,0,5.06-1.49v1.17h1.9V416.65Zm-24.65,9.74.66-.32a9.71,9.71,0,0,1,1.88-.68,8.9,8.9,0,0,1,2.33-.33c1.51,0,2.5.42,3,1.28a11.68,11.68,0,0,1,.69,4.91v8.22h1.9v-8.31c0-3-.35-5-1.06-6.13s-2.11-1.68-4.22-1.68a10.55,10.55,0,0,0-5.15,1.49v-1.17h-1.87v15.8h1.87Zm-16.08,6.38a3.22,3.22,0,0,1,2.23-.88l5.15-.54v5.72l-.79.28a15.39,15.39,0,0,1-2.15.56,12.94,12.94,0,0,1-2.5.27c-1.75,0-2.62-1.07-2.62-3.2a3.18,3.18,0,0,1,.68-2.21m8.07-8.19a5,5,0,0,0-3.77-1.23,33.24,33.24,0,0,0-6.09.66l.1,1.52,1-.09a45.24,45.24,0,0,1,5.24-.38,2.8,2.8,0,0,1,2.07.77,3.51,3.51,0,0,1,.78,2.55v1.48l-5.37.54a5.87,5.87,0,0,0-3.53,1.34,4.49,4.49,0,0,0-1.12,3.35,5,5,0,0,0,1.1,3.48,4.16,4.16,0,0,0,3.23,1.22,14.65,14.65,0,0,0,5.94-1.3,4.56,4.56,0,0,0,3.57,1.27l.1-1.52c-1.29-.15-2-.61-2.06-1.39v-8.47a5.37,5.37,0,0,0-1.17-3.8m-14.13-7.93h-1.86v22.82h1.86Zm-16.56,9.48.66-.25a11.25,11.25,0,0,1,1.89-.55,10.68,10.68,0,0,1,2.32-.27c1.52,0,2.5.42,2.95,1.28a11.68,11.68,0,0,1,.69,4.91v8.22h1.89v-8.31c0-3-.35-5-1.06-6.13s-2.11-1.68-4.22-1.68a12.17,12.17,0,0,0-5.12,1.23v-7.93h-1.86v22.82h1.86Zm-14.36-1q-1.5,1.8-1.5,6.36t1.37,6.41q1.38,1.88,5.14,1.87a35,35,0,0,0,4.17-.38l-.06-1.61-3.76.28c-2,0-3.32-.48-4-1.45s-.95-2.68-.95-5.14.35-4.14,1-5.06,2-1.37,3.86-1.37a32.59,32.59,0,0,1,3.7.31l.09-1.61-.72-.09a21.93,21.93,0,0,0-3.39-.32q-3.54,0-5,1.8m-5.1.45.06-1.68-.85-.13a34.94,34.94,0,0,0-4.75-.41,7.15,7.15,0,0,0-4,1.05,3.66,3.66,0,0,0-1.61,3.31,3.55,3.55,0,0,0,1.17,3.1,10.08,10.08,0,0,0,4,1.27,12,12,0,0,1,3.73,1,2.26,2.26,0,0,1,.87,2.1,2.43,2.43,0,0,1-1.06,2.25,5.6,5.6,0,0,1-3,.66,38.89,38.89,0,0,1-5.43-.54l-.13,1.68.92.13a30,30,0,0,0,4.49.44,7.77,7.77,0,0,0,4.55-1.12,4.09,4.09,0,0,0,1.55-3.54c0-1.62-.4-2.71-1.19-3.28a10.49,10.49,0,0,0-4.08-1.34,13.06,13.06,0,0,1-3.71-1,1.88,1.88,0,0,1-.82-1.74q0-2.68,3.73-2.69a38.49,38.49,0,0,1,5.47.51m-13.69-1.93h-5.28v-5h-1.9v5h-2.34v1.67h2.34v8.76q0,3.34.93,4.53a4,4,0,0,0,3.34,1.19,23.23,23.23,0,0,0,3.19-.32l-.13-1.61-2.9.22c-1.1,0-1.79-.31-2.09-.95a11.57,11.57,0,0,1-.44-4v-7.81h5.28Zm-14.48,13.08-.6.32a8.1,8.1,0,0,1-1.77.68,8.38,8.38,0,0,1-2.28.33c-1.51,0-2.5-.42-2.95-1.26s-.68-2.49-.68-4.93v-8.22h-1.87v8.25c0,3.05.35,5.13,1,6.22s2.1,1.65,4.25,1.65a9.27,9.27,0,0,0,4.87-1.49v1.17h1.86v-15.8h-1.86Zm-23.13-10.38a4.24,4.24,0,0,1,3.43-1.38,3.93,3.93,0,0,1,3.29,1.33,7.47,7.47,0,0,1,1,4.46h-8.91a6.77,6.77,0,0,1,1.17-4.41M244,438.08a3.91,3.91,0,0,1-3.42-1.41,7.52,7.52,0,0,1-1-4.31h10.75l.06-1.52q0-3.91-1.55-5.7a5.86,5.86,0,0,0-4.68-1.79q-6.51,0-6.51,8.28,0,4.14,1.36,6.14c.91,1.32,2.5,2,4.77,2a51.36,51.36,0,0,0,6-.44l-.06-1.55-.95.09c-1.6.13-3.21.19-4.82.19m-17.47-.35h-6V419.27h6q5.77,0,5.78,8.92,0,9.54-5.78,9.54m7.81-9.54q0-10.69-7.81-10.69h-8v22h8q7.8,0,7.81-11.28" transform="translate(-0.1 0)"/><path class="cls-4" d="M409.5,389.05h-5.28v-5h-1.9v5H400v1.67h2.34v8.76q0,3.34.93,4.53a4,4,0,0,0,3.34,1.19,23.23,23.23,0,0,0,3.19-.32l-.13-1.61-2.9.22c-1.1,0-1.8-.31-2.09-.95a11.32,11.32,0,0,1-.44-4v-7.81h5.28Zm-22.61,2.72.66-.32a9.71,9.71,0,0,1,1.88-.68,8.89,8.89,0,0,1,2.32-.33c1.52,0,2.51.42,3,1.28a11.68,11.68,0,0,1,.69,4.91v8.22h1.9v-8.31c0-3-.36-5-1.06-6.13s-2.11-1.68-4.22-1.68a10.52,10.52,0,0,0-5.15,1.49v-1.17H385v15.8h1.87Zm-15,0a4.24,4.24,0,0,1,3.43-1.38,3.9,3.9,0,0,1,3.28,1.33,7.39,7.39,0,0,1,1,4.46h-8.91a6.77,6.77,0,0,1,1.17-4.41m3.24,11.71a3.9,3.9,0,0,1-3.42-1.41,7.52,7.52,0,0,1-1-4.31h10.74l.07-1.52q0-3.92-1.55-5.7a5.86,5.86,0,0,0-4.68-1.79q-6.51,0-6.51,8.28c0,2.76.45,4.81,1.36,6.13s2.49,2,4.77,2a51.5,51.5,0,0,0,6-.44l-.06-1.55-.95.09c-1.6.13-3.21.19-4.82.19m-29.86-11.69.6-.32a9.34,9.34,0,0,1,4-1c1.49,0,2.47.42,2.92,1.28a12.13,12.13,0,0,1,.68,5v8.15h1.9v-8.22a15.67,15.67,0,0,0-.48-4.86l.63-.32a9.18,9.18,0,0,1,1.84-.68,8.81,8.81,0,0,1,2.34-.33c1.51,0,2.5.42,2.95,1.28s.68,2.49.68,4.91v8.22h1.87v-8.31c0-3-.36-5-1.06-6.15s-2.11-1.66-4.22-1.66a10.18,10.18,0,0,0-2.93.49,11.8,11.8,0,0,0-2.76,1.19,4.33,4.33,0,0,0-3.86-1.68,9.58,9.58,0,0,0-5.12,1.49v-1.17h-1.86v15.8h1.86Zm-10.75,13.08V393l.82-.48a24.23,24.23,0,0,1,2.31-1,17.84,17.84,0,0,1,2.84-.87v-1.9a13.79,13.79,0,0,0-3.11,1,17.39,17.39,0,0,0-2.86,1.58v-2.27h-1.87v15.8Zm-15-13.1a4.24,4.24,0,0,1,3.43-1.38,3.93,3.93,0,0,1,3.29,1.33,7.47,7.47,0,0,1,1,4.46h-8.91a6.77,6.77,0,0,1,1.17-4.41m3.24,11.71a3.91,3.91,0,0,1-3.42-1.41,7.52,7.52,0,0,1-1-4.31h10.75l.06-1.52q0-3.92-1.55-5.7a5.86,5.86,0,0,0-4.68-1.79q-6.51,0-6.51,8.28c0,2.76.45,4.81,1.36,6.13s2.5,2,4.77,2a51.36,51.36,0,0,0,6-.44l-.06-1.55-.95.09c-1.6.13-3.21.19-4.82.19m-26.49,1.39h3.25l3.76-13,3.73,13h3.29l4-15.8h-1.93l-3.47,14.16h-.48l-4.11-13.85h-2l-4.11,13.85h-.44l-3.48-14.16h-1.93Zm-16.48-13.08c.67-.91,1.89-1.36,3.68-1.36s3,.45,3.69,1.37,1,2.61,1,5.09-.29,4.2-.88,5.17-1.86,1.45-3.81,1.45-3.22-.48-3.8-1.44-.86-2.68-.86-5.18.33-4.2,1-5.1m-1.56,11.5q1.38,1.91,5.24,1.9t5.24-1.9q1.37-1.89,1.37-6.35t-1.5-6.32q-1.5-1.87-5.12-1.87c-2.42,0-4.12.62-5.12,1.87s-1.5,3.35-1.5,6.32.46,5.09,1.39,6.35m-7.49-11.36c.64,1,1,2.64,1,5s-.37,4-1.1,5.06a4.42,4.42,0,0,1-3.83,1.53,21.19,21.19,0,0,1-3.73-.38V391.86l.7-.35a8.82,8.82,0,0,1,1.86-.72,7.82,7.82,0,0,1,2.25-.35,3.23,3.23,0,0,1,2.89,1.47m-7.7,20v-7.2a17.54,17.54,0,0,0,3.79.41q3.67,0,5.25-1.95c1.06-1.29,1.58-3.39,1.58-6.29s-.45-5-1.34-6.27a4.64,4.64,0,0,0-4.08-1.93,9.81,9.81,0,0,0-5.2,1.52v-1.2h-1.86V412Zm-26-20.19.6-.32a8.07,8.07,0,0,1,1.75-.68,8.19,8.19,0,0,1,2.26-.33c1.5,0,2.47.42,2.92,1.28s.68,2.51.68,5v8.15h1.9v-8.22a16.1,16.1,0,0,0-.47-4.86l.63-.32a10,10,0,0,1,4.17-1c1.52,0,2.5.42,3,1.28a11.89,11.89,0,0,1,.68,4.91v8.22H257v-8.31q0-4.49-1.06-6.15c-.7-1.11-2.11-1.66-4.22-1.66a10.12,10.12,0,0,0-2.92.49,11.71,11.71,0,0,0-2.77,1.19,4.31,4.31,0,0,0-3.85-1.68,9.55,9.55,0,0,0-5.12,1.49v-1.17h-1.87v15.8h1.87Zm-5.36,13.08v-1.74H220.51v-8.56h9.32v-1.74h-9.32v-8.16h11.22v-1.77H218.55v22Z" transform="translate(-0.1 0)"/><path class="cls-4" d="M318.84,356.42a4.25,4.25,0,0,1,3.43-1.37,3.9,3.9,0,0,1,3.29,1.32,7.39,7.39,0,0,1,1,4.46h-8.92a6.77,6.77,0,0,1,1.17-4.41m3.24,11.71a3.9,3.9,0,0,1-3.41-1.4,7.57,7.57,0,0,1-1-4.32h10.75l.06-1.52q0-3.92-1.54-5.7a5.89,5.89,0,0,0-4.68-1.79q-6.51,0-6.51,8.28c0,2.77.45,4.81,1.35,6.14s2.5,2,4.78,2a51.65,51.65,0,0,0,6-.44l-.07-1.55-1,.09c-1.6.13-3.2.19-4.82.19M312,347.4h-1.87v2.37H312Zm0,6.32h-1.87v15.8H312Zm-5.84,1.93.06-1.68-.85-.12a33.61,33.61,0,0,0-4.74-.42,7.19,7.19,0,0,0-4,1.05A3.66,3.66,0,0,0,295,357.8c0,1.51.39,2.55,1.17,3.09a10.08,10.08,0,0,0,4,1.27,12,12,0,0,1,3.73,1,2.26,2.26,0,0,1,.87,2.1,2.43,2.43,0,0,1-1.06,2.25,5.56,5.56,0,0,1-2.95.66,40.12,40.12,0,0,1-5.44-.53l-.13,1.67.92.13a30,30,0,0,0,4.49.44,7.69,7.69,0,0,0,4.55-1.12,4.09,4.09,0,0,0,1.55-3.54c0-1.61-.4-2.71-1.19-3.27a10.3,10.3,0,0,0-4.07-1.35,12.72,12.72,0,0,1-3.72-1,1.88,1.88,0,0,1-.82-1.74q0-2.68,3.73-2.69a38.49,38.49,0,0,1,5.47.51m-17,.93c.64,1,1,2.64,1,5s-.36,4-1.1,5.06-2,1.53-3.83,1.53a21.28,21.28,0,0,1-3.73-.38V356.53l.7-.35a8.82,8.82,0,0,1,1.86-.72,8.18,8.18,0,0,1,2.25-.35,3.23,3.23,0,0,1,2.89,1.47m-7.7,20.06v-7.21a17.63,17.63,0,0,0,3.8.41q3.66,0,5.24-1.94c1.06-1.3,1.58-3.4,1.58-6.29s-.44-5-1.34-6.28a4.64,4.64,0,0,0-4.08-1.93,9.81,9.81,0,0,0-5.2,1.52v-1.2h-1.86v22.92Zm-15-20.22a4.25,4.25,0,0,1,3.43-1.37,3.9,3.9,0,0,1,3.29,1.32,7.39,7.39,0,0,1,1,4.46h-8.92a6.77,6.77,0,0,1,1.17-4.41m3.24,11.71a3.9,3.9,0,0,1-3.41-1.4,7.57,7.57,0,0,1-1-4.32H276l.07-1.52q0-3.92-1.55-5.7a5.89,5.89,0,0,0-4.68-1.79q-6.51,0-6.51,8.28c0,2.77.45,4.81,1.36,6.14s2.49,2,4.77,2a51.65,51.65,0,0,0,6-.44l-.07-1.55-.95.09c-1.6.13-3.2.19-4.82.19M259.53,346.7h-1.87v22.82h1.87Zm-6.24.7h-1.87v2.37h1.87Zm0,6.32h-1.87v15.8h1.87Zm-8.51,2.86c.65,1,1,2.64,1,5s-.37,4-1.11,5.06a4.4,4.4,0,0,1-3.82,1.53,21.1,21.1,0,0,1-3.73-.38V356.53l.69-.35a8.93,8.93,0,0,1,1.87-.72,8.17,8.17,0,0,1,2.24-.35,3.22,3.22,0,0,1,2.89,1.47m-7.69,20.06v-7.21a17.47,17.47,0,0,0,3.79.41q3.66,0,5.25-1.94t1.58-6.29q0-4.35-1.35-6.28a4.63,4.63,0,0,0-4.07-1.93,9.76,9.76,0,0,0-5.2,1.52v-1.2h-1.87v22.92Zm-5.36-7.12v-1.74H220.51v-8.56h9.32v-1.74h-9.32v-8.16h11.22v-1.77H218.55v22Z" transform="translate(-0.1 0)"/></g><path class="cls-5" d="M591.37,363.39l-5.17-44.24,27.58-23h0l6.89-69.51-45.38-84.44h0l-25.85-12.64L481.08,96.26h0l-46.53-4-35.05-2.3h0v0l-91.34,17.81h0l-79.85,76.69-13.21,60h0l25.85,59,75.1,12.91,47.7,31H417l0,0,0,0h0l55.44,71.81h0l27,25.91V396.13l91.91-32.74" transform="translate(-0.1 0)"/><g id="Ebene_2" data-name="Ebene 2"><polygon class="cls-6" points="315.95 316.34 280.49 293.3 391.07 293.33 391.07 267.45 407.44 256.54 434.44 227.81 501.08 227.81 526.36 187.6 549.34 129.58 480.98 96.26 480.98 96.26 434.44 92.24 399.4 89.94 399.4 89.94 399.4 90 399.4 89.94 308.06 107.75 308.06 107.75 228.21 184.44 215 244.47 215 244.47 240.85 303.43 315.95 316.34"/></g><polygon class="cls-7" points="434.44 199.09 501.08 199.09 434.44 227.81 434.44 199.09"/><polygon class="cls-8" points="485.29 227.81 501.08 199.09 434.44 227.81 460.8 228.52 485.29 227.81"/><polygon class="cls-9" points="485.29 227.81 501.08 199.09 501.08 227.81 495.06 228.52 485.29 227.81"/><polygon class="cls-10" points="499.36 445.02 499.36 423.16 472.36 419.11 499.36 445.02"/><polygon class="cls-11" points="390.52 293.33 416.92 347.3 407.99 293.3 390.52 293.33"/><polygon class="cls-9" points="390.24 172.66 407.99 172.66 399.4 89.94 390.24 172.66"/><polygon class="cls-12" points="390.79 172.66 308.06 107.75 280.49 172.66 390.79 172.66"/><polygon class="cls-13" points="280.49 293.3 306.45 267.45 306.45 246.19 280.49 293.3"/><polygon class="cls-14" points="390.79 172.66 305.9 199.09 390.79 199.09 390.79 172.66"/><polygon class="cls-15" points="390.79 172.66 308.06 107.75 399.4 89.94 390.79 172.66"/><polygon class="cls-16" points="390.79 172.66 407.45 172.66 390.79 199.09 390.79 172.66"/><polygon class="cls-17" points="407.44 256.54 407.44 172.66 390.79 199.09 407.44 256.54"/><polygon class="cls-16" points="407.44 256.54 374.7 220.34 390.79 199.09 407.44 256.54"/><polygon class="cls-12" points="306.45 199.09 374.7 220.34 390.79 199.09 306.45 199.09"/><polygon class="cls-10" points="306.45 199.09 374.7 220.34 306.45 220.34 306.45 199.09"/><polygon class="cls-14" points="306.45 246.19 374.7 220.34 306.45 220.34 305.74 232.49 306.45 246.19"/><polygon class="cls-12" points="407.44 256.54 374.7 220.34 374.7 246.19 407.44 256.54"/><polygon class="cls-10" points="407.44 256.54 391.07 267.88 374.7 246.19 407.44 256.54"/><polygon class="cls-18" points="325.87 246.19 391.07 267.88 374.7 246.19 325.87 246.19"/><polygon class="cls-19" points="325.87 246.19 391.07 267.88 306.45 267.45 325.87 246.19"/><polygon class="cls-18" points="325.87 246.19 306.45 246.19 306.45 267.45 325.87 246.19"/><polygon class="cls-20" points="407.44 256.54 391.07 267.88 391.07 293.33 407.44 256.54"/><polygon class="cls-21" points="407.44 256.54 407.44 293.3 391.07 293.33 407.44 256.54"/><polygon class="cls-8" points="434.44 92.24 407.44 172.66 399.4 89.94 434.44 92.24"/><polygon class="cls-7" points="434.44 92.24 407.44 172.66 506.25 172.66 434.44 92.24"/><polygon class="cls-22" points="434.44 92.24 480.98 96.26 506.25 172.66 434.44 92.24"/><polygon class="cls-9" points="549.34 129.58 480.98 96.26 506.25 172.66 549.34 129.58"/><polygon class="cls-7" points="549.34 129.58 526.36 187.6 506.25 172.66 549.34 129.58"/><polygon class="cls-23" points="501.08 199.09 526.36 187.6 506.25 172.66 502.94 185.66 501.08 199.09"/><polygon class="cls-9" points="501.08 199.09 526.36 187.6 501.08 227.81 501.08 199.09"/><polygon class="cls-24" points="484.74 227.81 506.25 254.24 501.79 227.81 484.74 227.81"/><polygon class="cls-23" points="434.44 254.24 434.44 227.81 485.29 227.81 434.44 254.24"/><polygon class="cls-25" points="549.34 129.58 526.36 187.6 536.13 172.66 549.34 129.58"/><polygon class="cls-26" points="549.34 129.58 561.98 172.66 536.13 172.66 549.34 129.58"/><polygon class="cls-27" points="549.34 129.58 561.98 172.66 575.19 142.22 549.34 129.58"/><polygon class="cls-28" points="620.57 226.66 561.98 172.66 575.19 142.22 620.57 226.66"/><polygon class="cls-26" points="620.57 226.66 561.98 172.66 561.98 293.3 620.57 226.66"/><polygon class="cls-28" points="620.57 226.66 613.68 296.17 561.98 293.3 620.57 226.66"/><polygon class="cls-29" points="586.1 319.15 613.68 296.17 561.98 293.3 586.1 319.15"/><polygon class="cls-28" points="586.1 319.15 536.13 293.3 561.98 293.3 586.1 319.15"/><polygon class="cls-26" points="586.1 319.15 536.13 293.3 591.27 363.38 586.1 319.15"/><polygon class="cls-27" points="499.36 396.13 536.13 293.3 591.27 363.39 499.36 396.13"/><polygon class="cls-28" points="499.36 396.13 536.13 293.3 434.44 254.24 499.36 396.13"/><polygon class="cls-27" points="506.25 254.24 536.13 293.3 434.44 254.24 506.25 254.24"/><polygon class="cls-28" points="506.25 254.24 536.13 293.3 524.64 244.47 506.25 254.24"/><polygon class="cls-27" points="536.13 212.88 536.13 293.3 524.64 244.47 536.13 212.88"/><polygon class="cls-26" points="536.13 212.88 526.36 187.6 524.64 244.47 536.13 212.88"/><polygon class="cls-28" points="536.13 212.88 526.36 187.6 536.13 172.66 536.13 212.88"/><polygon class="cls-26" points="499.36 396.13 434.44 293.3 434.44 254.24 499.36 396.13"/><polygon class="cls-28" points="499.36 396.13 434.44 293.3 407.45 293.3 499.36 396.13"/><polygon class="cls-25" points="499.36 396.13 416.92 347.3 407.45 293.3 499.36 396.13"/><polygon class="cls-30" points="499.36 396.13 416.92 347.3 472.36 419.11 499.36 396.13"/><polygon class="cls-21" points="499.36 396.13 499.36 423.7 472.36 419.11 499.36 396.13"/><polygon class="cls-25" points="391.07 293.33 416.92 347.3 363.65 347.3 391.07 293.33"/><polygon class="cls-20" points="391.07 293.33 280.49 293.33 363.65 347.3 391.07 293.33"/><polygon class="cls-12" points="240.85 303.43 280.49 293.33 315.98 316.35 240.85 303.43"/><polygon class="cls-16" points="240.85 303.43 280.49 293.33 280.49 172.66 240.85 303.43"/><polygon class="cls-31" points="240.85 303.43 215 244.47 280.49 172.66 240.85 303.43"/><polygon class="cls-32" points="228.21 184.44 215 244.47 280.49 172.66 228.21 184.44"/><polygon class="cls-18" points="228.21 184.44 308.06 107.75 280.49 172.66 228.21 184.44"/><polyline class="cls-33" points="280.49 293.33 306.45 267.45 306.45 246.19"/><polyline class="cls-33" points="526.36 187.6 501.08 227.81 501.08 199.09"/><polygon class="cls-34" points="306.45 246.19 374.7 220.34 374.7 246.19 306.45 246.19"/><polygon class="cls-23" points="434.44 199.09 407.44 172.66 407.44 293.3 434.44 199.09"/><polygon class="cls-34" points="536.13 293.3 553.43 236.92 561.98 172.66 536.13 172.66 536.13 293.3"/><polygon class="cls-35" points="536.13 293.3 561.98 172.66 561.98 293.3 536.13 293.3"/><polygon class="cls-14" points="391.07 267.45 305.91 267.45 391.07 293.33 391.07 267.45"/><polygon class="cls-35" points="501.08 199.09 433.74 199.09 506.25 172.66 501.08 199.09"/><polygon class="cls-35" points="434.44 254.24 506.25 254.24 485.29 227.81 434.44 254.24"/><polygon class="cls-23" points="390.79 172.66 306.45 199.09 280.49 172.66 390.79 172.66"/><polygon class="cls-35" points="524.64 244.47 526.36 187.6 501.08 227.81 524.64 244.47"/><polygon class="cls-23" points="524.64 244.47 506.25 254.24 501.08 227.81 524.64 244.47"/><polygon class="cls-34" points="434.44 199.09 407.44 172.66 506.25 172.66 434.44 199.09"/><g class="cls-36"><path class="cls-4" d="M385.17,309.77a.48.48,0,0,1-.2.4.76.76,0,0,1-.45.15H363a.64.64,0,0,1-.43-.15.51.51,0,0,1-.17-.4v-9.22a.58.58,0,0,1,.6-.6h21.55a.72.72,0,0,1,.45.17.57.57,0,0,1,.2.43Zm6.66.25V300.3a6.64,6.64,0,0,0-.95-3.48,7.22,7.22,0,0,0-2.56-2.53,6.68,6.68,0,0,0-3.5-1H355.76v36h6.61V317l22.45,0a6.93,6.93,0,0,0,3.5-.92,7.06,7.06,0,0,0,2.56-2.53,6.8,6.8,0,0,0,.95-3.51" transform="translate(-0.1 0)"/><path class="cls-4" d="M424.7,322.09a.57.57,0,0,1-.2.43.66.66,0,0,1-.45.18H402.5a.56.56,0,0,1-.42-.18.58.58,0,0,1-.18-.43V300.55a.58.58,0,0,1,.18-.43.59.59,0,0,1,.42-.17h21.55a.7.7,0,0,1,.45.17.57.57,0,0,1,.2.43Zm6.66.3V300.25a6.55,6.55,0,0,0-.95-3.48,7.21,7.21,0,0,0-2.53-2.53,6.56,6.56,0,0,0-3.48-1H402.25a6.56,6.56,0,0,0-3.48,1,7.21,7.21,0,0,0-2.53,2.53,6.55,6.55,0,0,0-.95,3.48v22.14a6.61,6.61,0,0,0,.95,3.49,7.38,7.38,0,0,0,2.53,2.53,6.64,6.64,0,0,0,3.48.95H424.4a6.64,6.64,0,0,0,3.48-.95,7.38,7.38,0,0,0,2.53-2.53,6.61,6.61,0,0,0,.95-3.49" transform="translate(-0.1 0)"/></g><polygon class="cls-4" points="452.41 329.36 461.73 303.8 471.1 329.36 476.31 329.36 489.44 293.28 482.37 293.28 473.7 317.08 464.99 293.28 458.52 293.28 449.8 317.08 441.08 293.28 434.07 293.28 447.2 329.36 452.41 329.36"/><polygon class="cls-4" points="527.52 329.36 527.52 322.69 500.96 322.69 500.96 314.68 522.3 314.68 522.3 307.96 500.96 307.96 500.96 299.95 527.52 299.95 527.52 293.28 494.3 293.28 494.3 329.36 527.52 329.36"/><g class="cls-36"><path class="cls-4" d="M562.09,309.77a.48.48,0,0,1-.2.4.76.76,0,0,1-.45.15H539.89a.6.6,0,0,1-.42-.15.49.49,0,0,1-.18-.4v-9.22a.58.58,0,0,1,.18-.43.57.57,0,0,1,.42-.17h21.55a.72.72,0,0,1,.45.17.57.57,0,0,1,.2.43Zm5.71,3.76a6.8,6.8,0,0,0,1-3.51V300.3a6.64,6.64,0,0,0-1-3.48,7.19,7.19,0,0,0-2.55-2.53,6.71,6.71,0,0,0-3.51-1H532.68v36h6.61V317l11.8,0,10.35,12.35h8.74L559.74,317h2a6.87,6.87,0,0,0,3.51-.92,7,7,0,0,0,2.55-2.53" transform="translate(-0.1 0)"/></g><polygon class="cls-23" points="280.49 293.33 306.45 267.45 391.07 293.33 280.49 293.33"/><polygon class="cls-34" points="434.44 199.09 434.44 293.3 407.44 293.3 434.44 199.09"/><polygon class="cls-23" points="280.49 293.33 306.45 198.54 306.45 246.74 280.49 293.33"/><polygon class="cls-34" points="280.49 293.3 306.45 199.09 280.49 172.66 280.49 293.3"/></svg>